<?xml version="1.0" encoding="UTF-8" standalone="no"?>
<svg width="24px" height="6px" viewBox="0 0 24 6" version="1.1" xmlns="http://www.w3.org/2000/svg" xmlns:xlink="http://www.w3.org/1999/xlink">
    <!-- Generator: Sketch 3.8.3 (29802) - http://www.bohemiancoding.com/sketch -->
    <title>more</title>
    <desc>Created with Sketch.</desc>
    <defs></defs>
    <g id="Mobile" stroke="none" stroke-width="1" fill="none" fill-rule="evenodd">
        <g id="more" transform="translate(12.000000, 3.000000) rotate(90.000000) translate(-12.000000, -3.000000) translate(9.000000, -9.000000)" fill="#FFFFFF">
            <path d="M3,6 C4.65,6 6,4.65 6,3 C6,1.35 4.65,0 3,0 C1.35,0 0,1.35 0,3 C0,4.65 1.35,6 3,6 L3,6 Z M3,9 C1.35,9 0,10.35 0,12 C0,13.65 1.35,15 3,15 C4.65,15 6,13.65 6,12 C6,10.35 4.65,9 3,9 L3,9 Z M3,18 C1.35,18 0,19.35 0,21 C0,22.65 1.35,24 3,24 C4.65,24 6,22.65 6,21 C6,19.35 4.65,18 3,18 L3,18 Z" id="Shape"></path>
        </g>
    </g>
</svg>